<?xml version="1.0" encoding="utf-8"?>
<!-- Generator: Adobe Illustrator 21.0.0, SVG Export Plug-In . SVG Version: 6.00 Build 0)  -->
<svg version="1.1" id="Layer_1" xmlns="http://www.w3.org/2000/svg" xmlns:xlink="http://www.w3.org/1999/xlink" x="0px" y="0px"
	 viewBox="0 0 469.3 469.3" style="enable-background:new 0 0 469.3 469.3;" xml:space="preserve">
<style type="text/css">
	.st0{fill:#FF9A2C;}
	.st1{fill:#FFFFFF;}
</style>
<circle class="st0" cx="235" cy="235" r="234"/>
<g>
	<g>
		<g>
			<path class="st1" d="M154.6,220.9c0-4.6-3.7-8.3-8.3-8.3s-8.3,3.7-8.3,8.3c0,21.8,24,51.7,26.8,55.1c1.6,2,4,3,6.4,3
				c1.8,0,3.7-0.6,5.3-1.9c3.5-2.9,4.1-8.1,1.2-11.7C168.8,254.6,154.6,232.9,154.6,220.9z"/>
			<path class="st1" d="M329,212.6c-4.6,0-8.3,3.7-8.3,8.3c0,12-14.1,33.7-23,44.6c-2.9,3.5-2.4,8.8,1.2,11.7
				c1.5,1.3,3.4,1.9,5.3,1.9c2.4,0,4.8-1,6.4-3c2.7-3.3,26.8-33.3,26.8-55.1C337.3,216.3,333.6,212.6,329,212.6z"/>
			<path class="st1" d="M237.7,212.6c-4.6,0-8.3,3.7-8.3,8.3v49.8c0,4.6,3.7,8.3,8.3,8.3c4.6,0,8.3-3.7,8.3-8.3v-49.8
				C246,216.3,242.3,212.6,237.7,212.6z"/>
			<path class="st1" d="M329,79.7c-5,0-10.3,0.7-15.8,1.7c-18.3-21.3-45.4-34.9-75.6-34.9s-57.3,13.6-75.6,34.9
				c-5.5-1-10.7-1.7-15.8-1.7c-50.4,0-91.3,41-91.3,91.3c0,34.5,19.5,65.9,50,81.4l-0.2,125.5c0,9.1,3.5,17.6,9.9,24
				c6.4,6.4,14.9,9.9,24,9.9h197.9c18.7,0,33.9-15.2,33.9-33.9V252.3c30.4-15.6,49.8-46.9,49.8-81.3
				C420.3,120.7,379.4,79.7,329,79.7z M353.9,378c0,9.5-7.8,17.3-17.3,17.3H138.7c-4.6,0-9-1.8-12.2-5.1c-3.3-3.3-5.1-7.6-5.1-12.2
				l0-32.5h232.4V378z M359.1,239.4c-0.4,0.2-0.9,0.4-1.2,0.6c-1,0.6-1.9,1.5-2.5,2.5c-0.6,1-1.1,2.1-1.3,3.3
				c-0.1,0.5-0.1,0.9-0.1,1.4v81.5H121.5l0.1-81.4c0-0.5,0-0.9-0.1-1.4c-0.2-1.3-0.6-2.4-1.3-3.4c-0.6-0.9-1.5-1.8-2.5-2.4
				c-0.4-0.3-0.9-0.5-1.3-0.7c-27.3-11.9-44.9-38.8-44.9-68.4c0-41.2,33.5-74.7,74.7-74.7c1.6,0,3.3,0.2,5,0.3
				c-8.4,14.6-13.3,31.5-13.3,49.5c0,4.6,3.7,8.3,8.3,8.3s8.3-3.7,8.3-8.3c0-45.8,37.3-83,83-83s83,37.3,83,83
				c0,4.6,3.7,8.3,8.3,8.3c4.6,0,8.3-3.7,8.3-8.3c0-18-4.9-34.9-13.3-49.5c1.7-0.1,3.4-0.3,5-0.3c41.2,0,74.7,33.5,74.7,74.7
				C403.7,200.6,386.2,227.5,359.1,239.4z"/>
		</g>
	</g>
</g>
</svg>
